<?xml version="1.0" encoding="utf-8"?>
<!-- Generator: Adobe Illustrator 16.0.0, SVG Export Plug-In . SVG Version: 6.00 Build 0)  -->
<!DOCTYPE svg PUBLIC "-//W3C//DTD SVG 1.1//EN" "http://www.w3.org/Graphics/SVG/1.1/DTD/svg11.dtd">
<svg version="1.1" id="Layer_1" xmlns="http://www.w3.org/2000/svg" xmlns:xlink="http://www.w3.org/1999/xlink" x="0px" y="0px"
	 width="229.95px" height="206.849px" viewBox="0 0 229.95 206.849" enable-background="new 0 0 229.95 206.849"
	 xml:space="preserve">
<g>
	<path d="M130.559,93.159c15.64-9.18,26.52-24.479,26.52-42.16c0-28.22-22.439-51-65.619-51H75.08v12.58h14.679
		c25.5,0,37.399,17.34,37.399,38.419c0,21.08-11.899,38.08-37.399,38.08H75.08v12.58h25.559c29.58,0,43.52,20.4,43.52,45.22
		c0,24.479-13.939,44.539-43.52,44.539h-8.84c-28.22,0-32.719-5.441-32.719-39.441v-26.312v-24.005v-12.58V18.665V0L0,6v7.14
		c28.22,0,32.3,5.44,32.3,39.439v104.499c0,34-4.08,39.779-32.3,39.779v7.141h100.979c47.26,0,73.1-25.5,73.1-57.119
		C174.078,122.399,156.738,101.319,130.559,93.159z"/>
	<line x1="75.08" y1="12.58" x2="75.08" y2="0"/>
</g>
<g>
	<path d="M210.57,206.849c-10.54,0-18.699-8.16-18.699-17.68c0-9.86,8.159-18.02,18.699-18.02s19.38,8.159,19.38,18.02
		C229.95,198.689,221.11,206.849,210.57,206.849z"/>
</g>
</svg>
